<?xml version="1.0" standalone="no"?>
<!DOCTYPE svg PUBLIC "-//W3C//DTD SVG 20010904//EN"
 "http://www.w3.org/TR/2001/REC-SVG-20010904/DTD/svg10.dtd">
<svg version="1.0" xmlns="http://www.w3.org/2000/svg"
 width="4096.000000pt" height="993.000000pt" viewBox="0 0 4096.000000 993.000000"
 preserveAspectRatio="xMidYMid meet">

<g transform="translate(0.000000,993.000000) scale(0.100000,-0.100000)"
fill="#000000" stroke="none">
<path d="M1677 4513 c-3 -5 -373 -973 -822 -2153 -450 -1180 -826 -2166 -836
-2193 l-19 -47 312 2 313 3 245 672 245 673 841 0 841 0 239 -675 239 -675
308 0 c289 0 308 1 303 18 -4 9 -363 998 -800 2197 l-794 2180 -305 3 c-168 1
-308 -1 -310 -5z m623 -1633 c172 -492 315 -901 318 -907 3 -10 -132 -13 -653
-13 -631 0 -656 1 -653 18 7 41 663 1811 669 1804 3 -4 147 -410 319 -902z"/>
<path d="M7735 4400 l-280 -118 -3 -406 -2 -406 -265 0 -265 0 0 -235 0 -235
265 0 264 0 4 -1242 c2 -862 7 -1257 14 -1288 27 -110 55 -164 117 -226 72
-71 148 -106 289 -130 121 -21 415 -14 607 15 74 12 141 21 148 21 9 0 12 53
12 231 l0 231 -22 -5 c-13 -3 -68 -17 -123 -33 -80 -22 -123 -27 -210 -28 -98
-1 -114 1 -147 22 -51 32 -85 105 -98 212 -6 53 -10 476 -10 1152 l0 1068 305
0 305 0 0 235 0 235 -305 0 -305 0 0 525 c0 289 -3 525 -7 524 -5 0 -134 -54
-288 -119z"/>
<path d="M14180 4250 l0 -270 1250 0 c688 0 1250 -2 1250 -5 0 -2 -562 -743
-1250 -1645 l-1250 -1641 0 -284 0 -285 1620 0 1620 0 -2 263 -3 262 -1272 3
c-700 1 -1273 4 -1273 7 0 3 558 750 1240 1661 l1240 1655 0 274 0 275 -1585
0 -1585 0 0 -270z"/>
<path d="M5178 3589 c-558 -43 -965 -322 -1072 -737 -40 -151 -37 -370 5 -509
38 -124 85 -200 183 -298 180 -178 355 -250 926 -380 543 -124 733 -196 871
-334 98 -99 133 -213 111 -361 -46 -319 -360 -489 -857 -467 -337 16 -556 109
-697 299 -28 37 -56 68 -62 68 -21 0 -569 -99 -573 -104 -17 -17 117 -208 211
-302 249 -247 588 -370 1076 -390 440 -18 826 84 1101 291 278 209 420 519
389 847 -26 267 -131 443 -359 600 -197 135 -468 229 -981 339 -324 69 -486
125 -619 213 -79 53 -130 108 -163 175 -19 39 -23 62 -23 146 0 90 3 106 29
160 45 92 151 192 256 243 118 56 216 76 370 76 149 -1 259 -25 388 -85 147
-68 282 -182 346 -291 24 -41 30 -46 49 -38 12 4 129 53 259 107 l238 99 -36
60 c-203 337 -561 535 -1040 574 -140 11 -170 11 -326 -1z"/>
<path d="M12173 3590 c-455 -38 -797 -238 -992 -582 l-32 -58 23 -9 c13 -5
126 -52 252 -105 126 -53 233 -96 236 -96 4 0 17 26 29 58 81 211 261 331 543
362 242 27 483 -26 627 -140 27 -22 70 -68 96 -104 98 -138 133 -278 142 -567
l6 -196 -89 -7 c-753 -58 -992 -90 -1282 -171 -455 -128 -714 -351 -818 -702
-35 -121 -44 -303 -20 -423 81 -396 388 -669 851 -756 134 -25 411 -26 538 0
278 54 497 174 733 399 71 68 116 104 118 95 2 -7 7 -49 11 -93 6 -77 41 -321
51 -357 5 -17 28 -18 296 -18 272 0 290 1 283 18 -30 78 -58 262 -74 487 -6
77 -15 538 -21 1025 -6 487 -15 921 -21 965 -57 434 -261 708 -639 857 -245
95 -570 141 -847 118z m933 -2027 c-7 -255 -20 -342 -64 -456 -48 -125 -107
-214 -201 -307 -186 -184 -431 -269 -741 -257 -151 6 -220 21 -328 72 -242
114 -340 400 -221 643 94 193 331 312 809 408 181 36 688 122 724 123 l29 1
-7 -227z"/>
<path d="M19003 3590 c-324 -34 -624 -163 -852 -364 -294 -261 -469 -630 -521
-1101 -13 -119 -13 -424 1 -561 76 -775 467 -1292 1094 -1448 166 -41 249 -50
455 -49 215 0 352 19 510 69 302 95 558 291 732 559 35 54 37 60 21 67 -10 4
-132 28 -271 54 -252 48 -252 48 -267 28 -86 -124 -191 -217 -310 -274 -213
-104 -494 -116 -735 -32 -387 134 -619 521 -647 1075 l-6 127 1206 0 1207 0 0
33 c0 91 -22 375 -36 472 -41 283 -138 546 -283 765 -71 108 -243 282 -345
350 -158 105 -350 181 -541 215 -106 18 -309 26 -412 15z m318 -445 c248 -52
437 -203 550 -440 68 -141 129 -391 129 -527 l0 -38 -886 0 -887 0 7 68 c3 37
15 108 26 159 96 453 360 742 727 792 84 12 245 5 334 -14z"/>
<path d="M25393 3589 c-357 -34 -668 -180 -913 -428 -243 -245 -383 -539 -445
-936 -22 -143 -30 -452 -16 -615 60 -672 329 -1142 789 -1379 256 -131 578
-189 901 -163 396 33 687 162 932 412 83 86 217 266 205 277 -6 6 -502 103
-525 103 -9 -1 -34 -26 -56 -57 -106 -148 -277 -258 -468 -300 -88 -20 -315
-22 -402 -4 -309 64 -515 228 -654 522 -83 174 -126 358 -138 591 l-6 128
1208 0 1208 0 -7 153 c-14 298 -47 504 -117 711 -166 499 -505 828 -973 946
-173 44 -344 57 -523 39z m318 -443 c366 -78 595 -361 663 -819 9 -58 16 -123
16 -146 l0 -41 -886 0 -887 0 7 68 c24 234 120 495 239 649 138 180 305 272
552 307 51 7 226 -4 296 -18z"/>
<path d="M28715 3590 c-784 -50 -1326 -622 -1436 -1515 -15 -126 -15 -432 0
-550 28 -212 89 -428 172 -604 144 -306 409 -577 692 -706 263 -119 586 -172
894 -147 310 26 548 107 766 262 97 70 259 233 325 328 l43 62 -23 10 c-13 6
-124 53 -248 104 l-225 94 -24 -42 c-136 -230 -344 -357 -634 -387 -142 -15
-271 -3 -398 37 -414 131 -662 492 -720 1053 -16 159 -6 482 20 636 71 421
239 706 502 854 124 70 267 102 450 102 345 0 594 -136 745 -408 16 -29 34
-53 39 -53 12 0 497 200 507 209 15 13 -87 148 -186 247 -111 110 -203 177
-341 246 -256 128 -589 189 -920 168z"/>
<path d="M31631 3590 c-350 -29 -636 -156 -836 -372 -73 -79 -191 -257 -178
-268 9 -8 468 -200 494 -207 13 -4 21 8 33 45 38 114 144 235 252 290 226 114
583 119 810 11 84 -40 156 -100 210 -174 97 -137 132 -278 141 -567 l6 -198
-24 0 c-64 0 -673 -53 -809 -70 -817 -105 -1215 -341 -1356 -805 -25 -81 -28
-105 -28 -250 -1 -180 15 -256 80 -392 175 -366 610 -584 1114 -560 370 18
643 141 935 419 62 59 115 105 119 101 3 -3 6 -25 6 -48 0 -63 40 -352 56
-407 5 -17 28 -18 295 -18 159 0 289 2 289 4 0 2 -7 22 -15 46 -27 77 -54 274
-70 515 -2 44 -9 469 -15 945 -6 476 -15 910 -21 964 -19 181 -76 361 -161
504 -50 86 -198 228 -298 286 -264 155 -668 236 -1029 206z m935 -2027 c-8
-255 -20 -343 -64 -456 -49 -126 -107 -214 -201 -307 -189 -185 -431 -269
-741 -257 -152 6 -223 22 -327 72 -245 120 -342 399 -223 642 95 194 331 313
810 409 182 36 688 122 724 123 l29 1 -7 -227z"/>
<path d="M22323 3535 c-320 -59 -597 -238 -770 -498 l-48 -72 -3 253 -2 252
-280 0 -280 0 0 -1675 0 -1675 280 0 279 0 4 1083 c3 991 5 1088 21 1157 39
168 118 303 247 424 186 175 384 244 664 233 310 -12 539 -148 647 -386 63
-138 61 -84 65 -1353 l4 -1158 275 0 274 0 0 1179 c0 1263 -1 1304 -51 1481
-110 396 -440 678 -883 755 -108 18 -341 18 -443 0z"/>
<path d="M10625 3505 c-206 -29 -377 -90 -530 -190 -97 -62 -261 -236 -327
-344 l-58 -95 0 297 0 297 -280 0 -280 0 0 -1675 0 -1675 280 0 280 0 0 928
c0 601 4 967 11 1038 37 370 190 615 465 745 139 66 366 109 574 109 l90 0 0
290 0 290 -67 -1 c-38 -1 -108 -7 -158 -14z"/>
</g>
</svg>
