<?xml version="1.0" standalone="no"?>
<!DOCTYPE svg PUBLIC "-//W3C//DTD SVG 20010904//EN"
 "http://www.w3.org/TR/2001/REC-SVG-20010904/DTD/svg10.dtd">
<svg version="1.0" xmlns="http://www.w3.org/2000/svg"
 width="300.000000pt" height="69.000000pt" viewBox="0 0 300.000000 69.000000"
 preserveAspectRatio="xMidYMid meet">

<g transform="translate(0.000000,69.000000) scale(0.100000,-0.100000)"
fill="#000000" stroke="none">
<path d="M1350 584 l0 -96 -35 30 c-44 40 -106 50 -161 27 -78 -32 -115 -87
-115 -170 0 -103 59 -174 151 -183 62 -6 91 2 129 34 l31 26 0 -26 c0 -19 5
-26 20 -26 19 0 20 7 20 240 0 233 -1 240 -20 240 -19 0 -20 -7 -20 -96z m-61
-92 c47 -34 65 -69 65 -122 0 -110 -113 -178 -205 -124 -81 48 -92 173 -21
237 43 39 115 43 161 9z"/>
<path d="M115 548 c-11 -6 -30 -20 -43 -31 l-22 -20 0 26 c0 22 -5 27 -25 27
l-25 0 0 -175 0 -175 25 0 25 0 0 115 c0 130 11 165 60 190 41 21 64 19 97 -9
28 -24 28 -25 31 -160 3 -126 5 -136 23 -136 17 0 19 8 19 98 0 53 5 113 10
133 20 72 101 111 149 72 29 -23 40 -80 40 -210 1 -86 2 -93 21 -93 19 0 20 7
20 113 0 61 -5 130 -10 152 -11 51 -59 95 -101 95 -41 0 -97 -27 -116 -57
l-16 -25 -14 26 c-25 47 -101 70 -148 44z"/>
<path d="M715 547 c-17 -8 -45 -30 -62 -50 -59 -67 -65 -154 -17 -230 35 -54
78 -77 142 -77 109 0 173 62 180 174 4 72 -15 114 -71 160 -43 35 -123 45
-172 23z m119 -41 c74 -31 106 -128 67 -204 -36 -70 -121 -94 -188 -52 -47 28
-66 72 -61 137 5 59 31 96 83 119 39 17 58 17 99 0z"/>
<path d="M1585 541 c-48 -22 -69 -44 -90 -94 -31 -75 -8 -167 54 -220 40 -34
67 -41 136 -35 59 5 118 41 130 79 12 37 -16 43 -45 10 -34 -39 -60 -51 -114
-51 -36 0 -52 6 -80 31 -19 16 -38 39 -41 50 -3 10 -8 28 -11 39 -5 19 -1 20
155 20 160 0 161 0 161 23 -1 30 -33 98 -56 119 -29 25 -89 48 -126 48 -18 0
-51 -9 -73 -19z m130 -35 c30 -13 75 -66 75 -88 0 -5 -58 -8 -130 -8 -71 0
-130 3 -130 8 0 21 45 75 73 87 41 18 69 18 112 1z"/>
<path d="M1991 534 c-30 -25 -31 -25 -31 -5 0 16 -6 21 -25 21 l-25 0 0 -175
0 -175 25 0 25 0 0 116 c0 84 4 125 15 149 18 36 55 61 79 52 16 -6 41 25 29
37 -15 14 -64 4 -92 -20z"/>
<path d="M2255 544 c-16 -8 -38 -23 -47 -31 -17 -15 -18 -14 -18 10 0 20 -5
27 -20 27 -19 0 -20 -7 -20 -175 0 -168 1 -175 20 -175 19 0 20 7 20 105 0 67
5 118 14 139 26 63 95 93 148 65 35 -19 48 -70 48 -194 0 -110 1 -115 21 -115
21 0 21 3 17 138 -4 150 -11 172 -61 202 -39 24 -82 25 -122 4z"/>
<path d="M2640 549 c-32 -13 -78 -56 -96 -91 -19 -37 -18 -132 2 -175 24 -50
76 -85 134 -91 62 -6 91 2 129 34 l31 26 0 -26 c0 -19 5 -26 20 -26 19 0 20 7
20 175 0 168 -1 175 -20 175 -16 0 -20 -7 -20 -30 l0 -30 -21 21 c-44 44 -122
60 -179 38z m126 -45 c90 -43 106 -172 30 -241 -30 -28 -43 -33 -83 -33 -60 0
-104 26 -126 73 -37 77 -9 163 63 199 43 22 72 23 116 2z"/>
</g>
</svg>
