<?xml version="1.0" standalone="no"?>
<!DOCTYPE svg PUBLIC "-//W3C//DTD SVG 20010904//EN"
 "http://www.w3.org/TR/2001/REC-SVG-20010904/DTD/svg10.dtd">
<svg version="1.0" xmlns="http://www.w3.org/2000/svg"
 width="400.000000pt" height="400.000000pt" viewBox="0 0 400.000000 400.000000"
 preserveAspectRatio="xMidYMid meet">

<g transform="translate(0.000000,400.000000) scale(0.100000,-0.100000)"
fill="#000000" stroke="none">
<path d="M1760 2944 c-14 -2 -65 -9 -115 -15 -572 -69 -1056 -340 -1215 -681
-109 -232 -58 -486 140 -701 99 -108 268 -226 412 -290 l56 -25 32 131 c105
426 303 1042 397 1234 34 68 116 145 179 167 142 48 335 -9 390 -115 29 -58
11 -139 -40 -172 -91 -60 -206 -1 -206 107 0 31 7 45 39 77 36 36 37 40 21 49
-10 6 -34 10 -53 10 -64 0 -109 -73 -206 -333 -28 -75 -51 -142 -51 -147 0 -6
64 -10 170 -10 149 0 170 -2 170 -16 0 -9 -39 -135 -86 -280 l-86 -264 -94 0
c-53 0 -93 3 -91 8 2 4 37 107 76 229 39 122 74 229 77 238 5 13 -7 15 -79 15
l-85 0 -35 -112 c-60 -189 -107 -351 -182 -623 -70 -254 -71 -260 -51 -268 44
-17 260 -66 368 -84 143 -23 603 -26 743 -5 610 92 1055 343 1216 685 17 37
38 107 47 157 14 82 14 98 0 180 -73 408 -534 723 -1225 836 -93 15 -569 29
-633 18z m-540 -506 c25 -13 55 -39 68 -58 34 -50 27 -151 -15 -242 -41 -88
-83 -132 -161 -170 -62 -31 -75 -33 -184 -37 l-118 -3 -19 -67 c-11 -36 -24
-82 -28 -101 l-9 -35 -117 -3 c-91 -2 -116 0 -112 10 19 57 185 628 185 637 0
6 -16 11 -35 11 -34 0 -35 1 -35 40 l0 40 268 0 c258 0 269 -1 312 -22z m1605
-204 c20 -9 49 -35 63 -57 24 -36 27 -50 27 -131 l0 -91 -182 -3 -182 -2 -16
-52 c-20 -68 -19 -101 4 -129 42 -52 143 -9 157 68 l6 33 94 0 c106 0 109 -2
75 -75 -25 -55 -66 -93 -131 -124 -97 -45 -258 -31 -324 27 -90 80 -67 300 46
445 79 100 253 144 363 91z m445 -4 c0 -7 30 -8 84 -4 127 10 176 -19 176
-104 0 -48 -28 -86 -74 -102 -45 -15 -100 7 -124 50 -13 23 -23 30 -42 28 -23
-3 -30 -18 -91 -203 l-65 -200 -94 -3 c-51 -1 -99 -1 -106 2 -9 3 9 66 61 218
40 117 76 221 80 231 6 14 1 17 -29 17 -35 0 -36 1 -36 40 l0 40 130 0 c81 0
130 -4 130 -10z m-900 -3 c0 -2 -56 -111 -125 -243 -69 -131 -125 -242 -125
-246 0 -5 34 -8 75 -8 41 0 75 -2 75 -5 0 -2 -5 -16 -12 -30 l-11 -25 -204 0
c-111 0 -203 4 -203 8 0 5 54 108 120 230 66 121 123 228 126 236 5 14 -5 16
-70 16 -42 0 -76 2 -76 5 0 4 7 19 15 35 l16 30 199 0 c110 0 200 -1 200 -3z"/>
<path d="M941 2371 c-12 -22 -101 -331 -101 -349 0 -22 101 -9 145 18 63 39
119 195 96 270 -14 48 -31 62 -87 70 -36 6 -47 4 -53 -9z"/>
<path d="M2663 2144 c-32 -16 -74 -70 -87 -112 -8 -23 -7 -23 81 -20 l88 3 9
47 c7 38 6 52 -8 72 -19 30 -38 32 -83 10z"/>
</g>
</svg>
