<?xml version="1.0" standalone="no"?>
<!DOCTYPE svg PUBLIC "-//W3C//DTD SVG 20010904//EN"
 "http://www.w3.org/TR/2001/REC-SVG-20010904/DTD/svg10.dtd">
<svg version="1.0" xmlns="http://www.w3.org/2000/svg"
 width="2560.000000pt" height="435.000000pt" viewBox="0 0 2560.000000 435.000000"
 preserveAspectRatio="xMidYMid meet">

<g transform="translate(0.000000,435.000000) scale(0.100000,-0.100000)"
fill="#000000" stroke="none">
<path d="M1550 4309 c-685 -32 -1217 -316 -1401 -749 -104 -246 -119 -600 -35
-848 56 -163 142 -299 264 -414 166 -157 522 -351 1037 -565 231 -96 400 -178
496 -241 135 -89 191 -208 167 -357 -28 -177 -179 -276 -483 -316 -116 -15
-501 -6 -655 15 -214 30 -521 97 -710 156 -36 11 -68 20 -73 20 -4 0 -6 -181
-5 -402 l3 -402 105 -23 c380 -81 558 -98 1065 -98 456 0 526 5 765 57 460 98
832 349 1009 678 136 254 168 619 81 905 -50 163 -179 355 -303 453 -201 160
-519 334 -1027 562 -113 51 -284 132 -381 181 -239 121 -306 188 -317 315 -12
146 88 274 260 333 113 39 242 54 443 53 297 -1 594 -43 967 -138 53 -13 99
-24 102 -24 4 0 5 161 4 357 l-3 357 -65 13 c-445 91 -959 139 -1310 122z"/>
<path d="M11705 4290 c-126 -13 -272 -39 -378 -65 -660 -167 -1118 -643 -1293
-1345 -130 -526 -102 -1192 71 -1655 145 -391 424 -722 770 -917 382 -216 934
-302 1475 -232 864 112 1429 643 1605 1509 63 308 70 734 19 1085 -70 480
-256 873 -537 1136 -268 250 -606 405 -1027 470 -122 18 -578 28 -705 14z
m461 -745 c198 -35 332 -104 475 -245 53 -52 118 -128 144 -168 156 -243 235
-564 235 -957 0 -752 -299 -1257 -814 -1373 -114 -25 -357 -22 -471 6 -114 29
-271 107 -355 175 -163 132 -290 342 -364 600 -88 302 -99 708 -31 1053 102
512 409 853 820 913 98 14 266 12 361 -4z"/>
<path d="M24145 4280 c-660 -55 -1176 -288 -1542 -700 -333 -375 -503 -861
-503 -1443 0 -802 316 -1397 940 -1769 262 -156 587 -259 956 -303 190 -23
501 -30 699 -16 178 13 491 61 683 106 l112 27 0 374 0 374 -24 0 c-13 0 -72
-11 -131 -25 -204 -48 -542 -97 -775 -110 -372 -23 -741 83 -992 284 -197 157
-330 345 -407 576 -56 169 -66 245 -66 510 0 215 2 251 23 344 65 290 184 505
388 701 181 174 373 273 640 327 138 28 500 25 694 -5 181 -29 381 -74 516
-117 l104 -33 -2 372 -3 371 -109 33 c-126 38 -377 86 -556 108 -156 18 -500
26 -645 14z"/>
<path d="M3880 2175 l0 -2035 520 0 520 0 0 2035 0 2035 -520 0 -520 0 0
-2035z"/>
<path d="M5700 2175 l0 -2035 403 2 402 3 5 1376 5 1376 756 -1376 756 -1376
612 -3 611 -2 0 2035 0 2035 -405 0 -405 0 -2 -1349 -3 -1348 -715 1346 -715
1346 -653 3 -652 2 0 -2035z"/>
<path d="M14339 4013 c37 -109 351 -1025 696 -2036 l629 -1837 602 0 602 0 25
72 c110 325 1357 3967 1362 3981 7 16 -22 17 -513 17 l-520 0 -114 -347 c-524
-1599 -844 -2563 -848 -2563 -3 0 -178 530 -388 1177 -210 648 -423 1303 -472
1456 l-91 277 -519 0 -519 0 68 -197z"/>
<path d="M19300 4206 c0 -3 -310 -912 -690 -2022 -379 -1109 -690 -2023 -690
-2031 0 -11 91 -13 514 -13 l514 0 46 138 c25 75 237 729 471 1452 235 723
430 1318 433 1322 4 4 218 -635 476 -1420 258 -785 475 -1442 482 -1460 l13
-32 515 0 c284 0 516 3 516 8 -1 4 -313 918 -694 2032 l-693 2025 -607 3
c-333 1 -606 0 -606 -2z"/>
</g>
</svg>
